<?xml version="1.0" standalone="no"?>
<!DOCTYPE svg PUBLIC "-//W3C//DTD SVG 20010904//EN"
 "http://www.w3.org/TR/2001/REC-SVG-20010904/DTD/svg10.dtd">
<svg version="1.0" xmlns="http://www.w3.org/2000/svg"
 width="1024.000000pt" height="1024.000000pt" viewBox="0 0 1024.000000 1024.000000"
 preserveAspectRatio="xMidYMid meet">

<g transform="translate(0.000000,1024.000000) scale(0.100000,-0.100000)"
fill="#000000" stroke="none">
<path d="M4411 5667 c-69 -195 -164 -451 -185 -499 l-16 -38 111 0 c85 0 110
-3 106 -12 -52 -117 -208 -521 -203 -525 2 -2 20 23 41 54 49 74 480 649 513
686 l26 27 -122 0 c-67 0 -122 2 -122 4 0 5 223 396 244 429 l18 27 -178 0
-179 0 -54 -153z"/>
<path d="M3528 5733 c6 -2 18 -2 25 0 6 3 1 5 -13 5 -14 0 -19 -2 -12 -5z"/>
<path d="M5827 5713 c19 -3 34 -11 36 -21 3 -12 5 -10 6 6 1 19 -3 22 -36 20
-37 -1 -37 -1 -6 -5z"/>
<path d="M3396 5674 c-108 -34 -164 -97 -195 -222 l-17 -67 -55 -3 -55 -3 -12
-70 c-7 -38 -12 -74 -12 -79 0 -6 23 -10 50 -10 37 0 50 -4 50 -15 0 -8 -18
-117 -40 -242 -22 -126 -40 -236 -40 -246 0 -16 10 -17 112 -15 l112 3 46 255
47 255 156 3 157 3 0 -23 c0 -13 -12 -79 -25 -148 -32 -161 -33 -236 -2 -280
42 -63 152 -96 265 -80 83 11 99 22 106 70 3 22 9 58 12 80 l6 41 -29 -8 c-48
-13 -111 -9 -130 9 -21 22 -21 47 7 206 l23 132 88 0 c84 0 89 1 93 23 14 65
26 129 26 138 0 6 -30 8 -85 3 -80 -6 -85 -6 -85 13 0 21 18 127 26 156 5 15
-5 17 -110 17 l-114 0 -6 -27 c-3 -16 -11 -56 -17 -90 l-12 -63 -148 -1 c-82
-1 -155 -2 -161 -3 -16 -1 -11 38 8 76 27 53 95 69 180 43 18 -6 21 0 32 57 7
35 15 73 18 85 5 18 0 23 -33 32 -54 15 -179 12 -237 -5z"/>
<path d="M2447 5669 c7 -7 15 -10 18 -7 3 3 -2 9 -12 12 -14 6 -15 5 -6 -5z"/>
<path d="M2085 5664 c-145 -24 -263 -81 -355 -174 -190 -189 -211 -498 -47
-668 106 -110 261 -155 455 -132 101 12 272 61 290 83 6 6 26 102 46 212 20
110 39 212 42 228 l6 27 -205 0 -204 0 -17 -82 c-9 -46 -16 -86 -16 -90 0 -5
41 -8 90 -8 88 0 90 0 86 -22 -3 -13 -10 -49 -16 -80 l-11 -57 -57 -12 c-63
-13 -155 -6 -205 15 -98 41 -142 120 -135 243 11 171 118 284 297 312 96 15
231 -8 325 -56 15 -8 32 -11 36 -6 4 4 12 40 19 78 7 39 15 80 18 93 4 19 -2
25 -43 44 -27 11 -71 27 -99 35 -52 14 -247 25 -300 17z"/>
<path d="M2751 5608 c-6 -35 -14 -75 -17 -90 l-6 -28 121 0 c67 0 121 1 121 3
0 1 7 40 15 87 8 47 15 86 15 88 0 1 -53 2 -119 2 l-118 0 -12 -62z"/>
<path d="M5585 5648 c-19 -83 -165 -885 -169 -928 -1 -12 17 -15 109 -15 l109
0 37 196 c20 108 44 210 53 226 42 83 170 120 220 64 30 -33 29 -81 -8 -284
-20 -109 -36 -200 -36 -202 0 -3 50 -5 110 -5 80 0 112 3 114 13 2 6 20 107
40 222 51 296 48 346 -27 412 -90 79 -244 69 -345 -22 l-49 -44 27 157 c16 86
31 174 35 195 l7 37 -111 0 c-107 0 -111 -1 -116 -22z"/>
<path d="M2480 5655 c0 -2 20 -13 45 -24 40 -18 45 -24 46 -53 1 -31 2 -31 8
-8 9 31 -1 46 -50 71 -39 19 -49 22 -49 14z"/>
<path d="M4042 5560 c0 -14 2 -19 5 -12 2 6 2 18 0 25 -3 6 -5 1 -5 -13z"/>
<path d="M2551 5464 c0 -11 3 -14 6 -6 3 7 2 16 -1 19 -3 4 -6 -2 -5 -13z"/>
<path d="M2978 5443 c6 -2 18 -2 25 0 6 3 1 5 -13 5 -14 0 -19 -2 -12 -5z"/>
<path d="M2541 5414 c0 -11 3 -14 6 -6 3 7 2 16 -1 19 -3 4 -6 -2 -5 -13z"/>
<path d="M6091 5426 c2 -2 15 -9 29 -15 24 -11 24 -11 6 3 -16 13 -49 24 -35
12z"/>
<path d="M2992 5390 c0 -14 2 -19 5 -12 2 6 2 18 0 25 -3 6 -5 1 -5 -13z"/>
<path d="M7791 5406 c2 -2 15 -9 29 -15 24 -11 24 -11 6 3 -16 13 -49 24 -35
12z"/>
<path d="M4182 5380 c0 -14 2 -19 5 -12 2 6 2 18 0 25 -3 6 -5 1 -5 -13z"/>
<path d="M5010 5382 c-167 -44 -273 -159 -301 -327 -36 -212 103 -365 332
-365 86 0 212 24 227 43 9 12 35 167 29 174 -2 2 -26 -7 -53 -19 -65 -28 -184
-31 -232 -5 -50 27 -72 71 -72 142 0 100 55 169 154 196 52 14 145 5 202 -20
24 -11 44 -19 45 -18 0 1 8 39 18 85 l17 83 -25 13 c-74 38 -233 46 -341 18z"/>
<path d="M6615 5391 c-88 -15 -165 -32 -169 -39 -2 -4 -7 -42 -11 -85 l-8 -79
29 15 c72 37 250 50 303 22 33 -16 41 -33 41 -81 0 -26 -4 -34 -17 -34 -78 0
-260 -24 -315 -40 -113 -34 -177 -111 -178 -210 0 -62 28 -109 85 -145 43 -27
56 -30 124 -29 89 1 147 23 210 79 l41 37 -2 -48 -3 -49 101 -3 102 -3 7 68
c4 37 20 138 36 223 16 85 29 171 29 190 0 92 -51 165 -138 195 -55 19 -196
27 -267 16z m159 -418 c-16 -73 -28 -95 -63 -118 -43 -29 -115 -41 -154 -26
-58 22 -55 106 5 137 29 15 114 31 181 33 36 1 37 0 31 -26z"/>
<path d="M7463 5385 c-126 -27 -235 -111 -290 -222 -25 -52 -28 -68 -28 -158
0 -80 4 -108 20 -140 27 -54 90 -115 150 -145 45 -23 62 -25 175 -25 104 0
135 4 184 22 163 61 266 208 266 377 0 226 -204 350 -477 291z m197 -183 c96
-71 68 -257 -49 -319 -81 -42 -184 -25 -224 39 -60 94 -1 254 108 294 50 18
130 11 165 -14z"/>
<path d="M8270 5385 c-121 -34 -191 -109 -192 -205 0 -98 48 -151 177 -190
138 -43 155 -51 161 -75 3 -13 3 -32 0 -43 -20 -61 -190 -54 -319 13 -28 14
-51 24 -52 23 -2 -2 -12 -36 -23 -76 l-20 -73 22 -15 c43 -27 176 -54 272 -54
195 0 320 76 340 207 16 111 -33 164 -202 218 -145 46 -175 79 -118 124 47 37
193 22 281 -29 l33 -19 6 27 c3 15 12 49 19 77 8 27 11 53 7 56 -40 39 -297
60 -392 34z"/>
<path d="M2657 5052 c-32 -180 -57 -333 -57 -340 0 -10 26 -12 113 -10 l112 3
17 86 c10 48 36 189 58 315 23 126 43 239 47 252 5 22 5 22 -113 22 l-119 0
-58 -328z"/>
<path d="M2975 5315 c-3 -26 -4 -49 -2 -51 3 -3 8 16 12 41 3 26 4 49 2 51 -3
3 -8 -16 -12 -41z"/>
<path d="M7010 5343 c0 -6 8 -17 18 -24 16 -13 16 -13 2 6 -8 11 -16 22 -17
24 -2 2 -3 0 -3 -6z"/>
<path d="M4171 5324 c0 -11 3 -14 6 -6 3 7 2 16 -1 19 -3 4 -6 -2 -5 -13z"/>
<path d="M2558 5254 c5 -41 7 -40 15 4 5 22 3 32 -6 32 -9 0 -12 -11 -9 -36z"/>
<path d="M7047 5269 c4 -13 8 -18 11 -10 2 7 -1 18 -6 23 -8 8 -9 4 -5 -13z"/>
<path d="M2635 5200 c-4 -23 -5 -43 -2 -46 2 -3 7 14 11 37 4 23 5 44 2 46 -2
2 -7 -14 -11 -37z"/>
<path d="M7063 5180 c0 -30 2 -43 4 -27 2 15 2 39 0 55 -2 15 -4 2 -4 -28z"/>
<path d="M2552 5190 c0 -14 2 -19 5 -12 2 6 2 18 0 25 -3 6 -5 1 -5 -13z"/>
<path d="M7971 5194 c0 -11 3 -14 6 -6 3 7 2 16 -1 19 -3 4 -6 -2 -5 -13z"/>
<path d="M1872 5165 c0 -16 2 -22 5 -12 2 9 2 23 0 30 -3 6 -5 -1 -5 -18z"/>
<path d="M2541 5134 c0 -11 3 -14 6 -6 3 7 2 16 -1 19 -3 4 -6 -2 -5 -13z"/>
<path d="M1872 5080 c0 -19 2 -27 5 -17 2 9 2 25 0 35 -3 9 -5 1 -5 -18z"/>
<path d="M3401 5064 c0 -11 3 -14 6 -6 3 7 2 16 -1 19 -3 4 -6 -2 -5 -13z"/>
<path d="M8653 5031 c12 -22 23 -38 25 -36 5 5 -26 63 -37 69 -5 4 0 -12 12
-33z"/>
<path d="M1890 5024 c1 -12 20 -36 45 -54 11 -8 7 1 -10 20 -16 19 -31 37 -32
39 -2 2 -3 0 -3 -5z"/>
<path d="M3392 5010 c0 -14 2 -19 5 -12 2 6 2 18 0 25 -3 6 -5 1 -5 -13z"/>
<path d="M2601 5004 c0 -11 3 -14 6 -6 3 7 2 16 -1 19 -3 4 -6 -2 -5 -13z"/>
<path d="M2921 5004 c0 -11 3 -14 6 -6 3 7 2 16 -1 19 -3 4 -6 -2 -5 -13z"/>
<path d="M2511 4964 c0 -11 3 -14 6 -6 3 7 2 16 -1 19 -3 4 -6 -2 -5 -13z"/>
<path d="M3382 4955 c0 -16 2 -22 5 -12 2 9 2 23 0 30 -3 6 -5 -1 -5 -18z"/>
<path d="M2911 4944 c0 -11 3 -14 6 -6 3 7 2 16 -1 19 -3 4 -6 -2 -5 -13z"/>
<path d="M4093 4880 c0 -25 2 -35 4 -22 2 12 2 32 0 45 -2 12 -4 2 -4 -23z"/>
<path d="M2581 4884 c0 -11 3 -14 6 -6 3 7 2 16 -1 19 -3 4 -6 -2 -5 -13z"/>
<path d="M3051 4884 c0 -11 3 -14 6 -6 3 7 2 16 -1 19 -3 4 -6 -2 -5 -13z"/>
<path d="M5391 4854 c0 -11 3 -14 6 -6 3 7 2 16 -1 19 -3 4 -6 -2 -5 -13z"/>
<path d="M6242 4845 c0 -16 2 -22 5 -12 2 9 2 23 0 30 -3 6 -5 -1 -5 -18z"/>
<path d="M2562 4780 c0 -14 2 -19 5 -12 2 6 2 18 0 25 -3 6 -5 1 -5 -13z"/>
<path d="M6250 4792 c0 -21 26 -65 56 -92 28 -26 24 -10 -6 25 -10 11 -25 34
-33 50 -9 17 -16 24 -17 17z"/>
<path d="M2544 4701 l-10 -48 46 4 c65 7 72 11 17 12 l-47 1 6 40 c9 56 0 50
-12 -9z"/>
<path d="M7990 4712 c30 -16 66 -32 80 -36 14 -3 -1 7 -34 24 -32 16 -68 32
-80 35 -11 3 4 -7 34 -23z"/>
<path d="M5361 4704 c0 -11 3 -14 6 -6 3 7 2 16 -1 19 -3 4 -6 -2 -5 -13z"/>
<path d="M1860 4665 c25 -9 70 -17 100 -20 53 -5 52 -4 -15 9 -38 8 -83 16
-100 20 -16 3 -10 -1 15 -9z"/>
<path d="M7325 4665 c17 -8 39 -14 50 -14 11 0 0 7 -25 15 -56 17 -64 17 -25
-1z"/>
<path d="M3010 4659 c0 -5 5 -7 10 -4 6 3 10 8 10 11 0 2 -4 4 -10 4 -5 0 -10
-5 -10 -11z"/>
<path d="M3745 4660 c11 -5 27 -9 35 -9 9 0 8 4 -5 9 -11 5 -27 9 -35 9 -9 0
-8 -4 5 -9z"/>
<path d="M5350 4660 c0 -6 27 -10 63 -9 59 1 60 2 22 10 -55 11 -85 11 -85 -1z"/>
<path d="M6690 4660 c0 -6 7 -10 15 -10 8 0 15 2 15 4 0 2 -7 6 -15 10 -8 3
-15 1 -15 -4z"/>
<path d="M6388 4653 c7 -3 16 -2 19 1 4 3 -2 6 -13 5 -11 0 -14 -3 -6 -6z"/>
<path d="M8148 4653 c7 -3 16 -2 19 1 4 3 -2 6 -13 5 -11 0 -14 -3 -6 -6z"/>
<path d="M8208 4643 c6 -2 18 -2 25 0 6 3 1 5 -13 5 -14 0 -19 -2 -12 -5z"/>
</g>
</svg>
